<?xml version="1.0" encoding="utf-8"?>
<!-- Generator: Adobe Illustrator 23.0.3, SVG Export Plug-In . SVG Version: 6.00 Build 0)  -->
<svg version="1.1" id="Calque_1" xmlns="http://www.w3.org/2000/svg" xmlns:xlink="http://www.w3.org/1999/xlink" x="0px" y="0px"
	 viewBox="0 0 128 128" style="enable-background:new 0 0 128 128;" xml:space="preserve">
<g transform="translate(0.000000,161.000000) scale(0.100000,-0.100000)">
	<path d="M1074.1,1451.4c-26,1.4-72.5-71.4-84.7-127.2c-1.5-6.6-5.2-25.7-10.4-25.7c-1.8,0-8.9,21-15.7,46.7
		c-6.8,25.7-22.5,72.1-43.3,75.1c-24.5,3.5-64.2-59.5-62.2-119.9c1.1-31.7,13.1-50.5,6.7-54.8c-16.2-10.9-82.2,113.1-155.3,105.8
		c-46.9-4.7-84.1-62.2-97-104.8c-16.3-53.8,0.9-101.1-4.9-102.5c-11.3-2.8-42.8,186.2-92.1,188.4c-47.1,2.1-93.5-166.6-80.3-173.1
		c10.4-5.1,57.7,91.8,90.1,82.3c13-3.8,18.6-23.4,21-35.6l11.1-32.5l-15.4-4.1c-9.4-4.2-23.7-11.7-37.6-25
		c-24.1-23-33.4-50.3-40.1-70.3c-13.3-40.1-11.6-68.5-18.3-69c-6.2-0.5-12.8,23.9-14.3,29.8c-34.7,132-49.8,264.8-76.3,267
		c-1.8,0.2-3.6-0.2-6.4-2c-25.5-16.3-38-142.3-55.3-144.2c-18.1-2-43.1,131.5-66.8,128.8c-0.7-0.1-1.8-0.3-3.5-1.5
		c-32.4-22.5-54-232.3-56.9-259c-1.2-11.5,0.4,5.6-36.5-178.5c-46.5-232-69.6-348.1-61.9-350.3c11.9-3.4,67.8,158.3,89.5,221.1
		c40.8,118.2,69.6,217.1,88,284.7c14.3-53.6,33.1-109.3,51.5-108.2c27.1,1.7,28.9,125.6,55.2,127.6c28.3,2.2,71.7-136.9,92.6-251.4
		c8.1-44.6,25.3-153.4,77.2-242.6c7.4-12.7,24.3-41.4,33.6-38.4c9.3,3,8,37,3,61.5c-4.7,23.2-12.4,36.8-21.8,57.2
		c0,0-4.3,9.4-30.8,83.2c-26.7,74.5-61.9,172.7-33.6,270.5c4.1,14.2,28.3,97.8,69.2,100.8c54.4,4,102.1-137.5,113-169.8
		c17.4-51.6,25.1-100.2,18.3-162.3c-3.6-32.5-35.8-90.6-55.1-100.1c-22-10.5-33.2-18.9-36.5-29.4c-0.2-0.6-3.5-12.6,2.5-22.6
		c12.4-21,58.8-22.6,88.2-8.3c10.4,5.1,40.7,22.9,57.9,101.6c31.6,143.9-27.1,277.7-34,293c-38.6,85.2-74.3,103.8-67.6,159.3
		c5.2,42.8,33.9,93.3,79.6,106.3c43.9,12.5,85.7-14.8,97.9-23c105.8-70.2,167.8-297.3,79.2-430.9c-52.3-78.9-142.8-103.4-134-154.7
		c4.3-24.9,30.8-49.6,56.5-50c77.5-1.4,207,213.9,163.2,386.3c-15.8,62.2-56.1,126.8-57,244.4c-0.4,50.3,6.8,68.9,8.9,68.9
		c5.2-0.1-0.4-115.3,55-200.2c6.4-9.9,15.7-22.4,25.8-21.3c27.8,2.9,28.7,109,44.4,109.6c12.5,0.5,26.5-65.9,46.1-187.5
		c23.5-146.1,23.1-173.2,42.2-246.8c27.1-104.4,62.7-184,76.9-181.2c1.1,0.2,2.7,1,3.9,1.9c11.1,8.1,5.6,32.9,3.7,42
		c-6.1,29-4.3,59.6-12.9,87.9c-7.7,25.7-19.2,97.1-42.2,240c-22.6,140.3-2.1,140.8-22.9,299.9
		C1132.1,1292,1111.6,1449.4,1074.1,1451.4z M1062.2,1350.7c36.9-3.5,41.5-221.8,38-222.3c-2.4-0.3-6.5,101.3-39.7,107.7
		c-24.8,4.8-48.6-46.9-57.6-42.5C988.1,1201,1030.9,1353.7,1062.2,1350.7z M351.1,1187.7c28.1,0.4,52.4-159.9,44.4-162.2
		c-5.5-1.6-22.7,72.1-46.7,71.1c-22.2-0.9-33.7-65.5-37.8-64.4C304.9,1033.7,323.7,1187.3,351.1,1187.7z M291.1,949.9
		c-14.2,64.3-31.2,118.3-48.9,117.8c-26.3-0.8-40.4-120.7-44.4-120c-5.4,1,14,215.3,42.2,215.6
		C249.4,1163.4,267.6,1139.5,291.1,949.9z"/>
	<path d="M873.3,527.7c3.5-3.3,60.2,82.4,137.2,82.3c70.5-0.1,115.4-72.3,139.3-55.6c14,9.8,10.6,43.1-0.9,64.4
		c-22.6,41.7-88.7,60.2-164.5,40.5C888.7,552.9,871.5,529.5,873.3,527.7z"/>
	<path d="M253.3,605.5c-61.4-15.4-99.6-106.7-90-115.2c7.1-6.3,36.3,35.9,84.1,47.3c69.2,16.6,144.2-38.8,205.8-102.1
		C406.6,556.5,316.9,621.5,253.3,605.5z"/>
</g>
</svg>
